HIERARCHY
ROOT Hips
{
	OFFSET -0.001795 -0.223333 0.028219
	CHANNELS 6 Xposition Yposition Zposition Zrotation Yrotation Xrotation 
	JOINT LeftUpLeg
	{
		OFFSET 0.069520 -0.091406 -0.006815
		CHANNELS 3 Zrotation Yrotation Xrotation
		JOINT LeftLeg
		{
			OFFSET 0.034277 -0.375199 -0.004496
			CHANNELS 3 Zrotation Yrotation Xrotation
			JOINT LeftFoot
			{
				OFFSET -0.013596 -0.397961 -0.043693
				CHANNELS 3 Zrotation Yrotation Xrotation
				JOINT LeftToe
				{
					OFFSET 0.026358 -0.055791 0.119288
					CHANNELS 3 Zrotation Yrotation Xrotation
					End Site
					{
						OFFSET 0.000000 0.000000 0.000000
					}
				}
			}
		}
	}
	JOINT RightUpLeg
	{
		OFFSET -0.067670 -0.090522 -0.004320
		CHANNELS 3 Zrotation Yrotation Xrotation
		JOINT RightLeg
		{
			OFFSET -0.038290 -0.382569 -0.008850
			CHANNELS 3 Zrotation Yrotation Xrotation
			JOINT RightFoot
			{
				OFFSET 0.015774 -0.398415 -0.042312
				CHANNELS 3 Zrotation Yrotation Xrotation
				JOINT RightToe
				{
					OFFSET -0.025372 -0.048144 0.123348
					CHANNELS 3 Zrotation Yrotation Xrotation
					End Site
					{
						OFFSET 0.000000 0.000000 0.000000
					}
				}
			}
		}
	}
	JOINT Spine
	{
		OFFSET -0.002533 0.108963 -0.026696
		CHANNELS 3 Zrotation Yrotation Xrotation
		JOINT Spine1
		{
			OFFSET 0.005487 0.135180 0.001092
			CHANNELS 3 Zrotation Yrotation Xrotation
			JOINT Spine2
			{
				OFFSET 0.001457 0.052922 0.025425
				CHANNELS 3 Zrotation Yrotation Xrotation
				JOINT Neck
				{
					OFFSET -0.002778 0.213870 -0.042857
					CHANNELS 3 Zrotation Yrotation Xrotation
					JOINT Head
					{
						OFFSET 0.005152 0.064970 0.051349
						CHANNELS 3 Zrotation Yrotation Xrotation
						End Site
						{
							OFFSET 0.000000 0.000000 0.000000
						}
					}
				}
				JOINT LeftShoulder
				{
					OFFSET 0.078845 0.121749 -0.034090
					CHANNELS 3 Zrotation Yrotation Xrotation
					JOINT LeftArm
					{
						OFFSET 0.090977 0.030469 -0.008868
						CHANNELS 3 Zrotation Yrotation Xrotation
						JOINT LeftForeArm
						{
							OFFSET 0.259612 -0.012772 -0.027456
							CHANNELS 3 Zrotation Yrotation Xrotation
							JOINT LeftHand
							{
								OFFSET 0.249234 0.008986 -0.001171
								CHANNELS 3 Zrotation Yrotation Xrotation
								End Site
								{
									OFFSET 0.000000 0.000000 0.000000
								}
							}
						}
					}
				}
				JOINT RightShoulder
				{
					OFFSET -0.081759 0.118833 -0.038615
					CHANNELS 3 Zrotation Yrotation Xrotation
					JOINT RightArm
					{
						OFFSET -0.096012 0.032551 -0.009143
						CHANNELS 3 Zrotation Yrotation Xrotation
						JOINT RightForeArm
						{
							OFFSET -0.253742 -0.013329 -0.021401
							CHANNELS 3 Zrotation Yrotation Xrotation
							JOINT RightHand
							{
								OFFSET -0.255298 0.007772 -0.005559
								CHANNELS 3 Zrotation Yrotation Xrotation
								End Site
								{
									OFFSET 0.000000 0.000000 0.000000
								}
							}
						}
					}
				}
			}
		}
	}
}
MOTION
Frames: 13
Frame Time: 0.050000
0.000000 0.957781 0.000000 -4.776800 -17.798300 12.930974 11.106668 0.690961 -17.067449 -2.978437 0.480945 3.739604 9.448678 17.237143 20.371854 0.000000 0.000000 0.000000 -6.643553 1.615406 -16.914428 6.911558 -0.355853 10.117842 -7.352685 -20.678685 15.555100 0.000000 0.000000 0.000000 -1.251867 0.506366 27.344731 -6.683418 1.899805 -19.739352 -6.816708 5.500530 23.271226 12.762278 -5.876344 -27.023215 0.000000 0.000000 0.000000 2.870630 -40.416519 13.684637 -15.760498 -55.449919 3.072081 12.042492 -3.667770 -0.238666 0.000000 0.000000 0.000000 6.458814 24.573620 9.565365 48.010421 67.922923 23.340766 -19.351142 17.534858 -1.858500 0.000000 0.000000 0.000000 
-0.001404 0.959421 0.000617 -3.980079 -16.641602 11.835064 10.838321 0.572283 -17.073202 -3.113835 0.519592 5.211080 8.068586 15.580685 18.390318 0.000000 0.000000 0.000000 -7.189958 1.458527 -15.910131 7.098025 -0.429519 9.842863 -8.666387 -22.484033 15.711709 0.000000 0.000000 0.000000 -1.958030 0.588416 26.721193 -5.238027 1.529174 -21.051076 -7.704504 6.199811 25.090148 15.649945 -6.785496 -29.827353 0.000000 0.000000 0.000000 1.507985 -40.179406 13.939666 -17.482479 -55.827609 3.529237 13.115479 -4.746340 -0.350988 0.000000 0.000000 0.000000 6.886984 21.967485 8.670925 56.797040 68.833171 30.057827 -18.554181 19.102587 -1.898865 0.000000 0.000000 0.000000 
-0.002872 0.960203 0.001517 -3.390310 -14.220062 10.519383 10.637680 0.373622 -15.978138 -3.177320 0.486989 4.582336 7.137365 14.581206 19.232013 0.000000 0.000000 0.000000 -6.734625 1.224029 -13.576720 5.015020 -0.248720 7.970395 -7.808861 -21.153485 18.218071 0.000000 0.000000 0.000000 -0.241434 -0.119312 25.764539 -6.851999 2.048387 -19.634872 -7.850850 6.534567 23.832477 14.543855 -6.295820 -27.857071 0.000000 0.000000 0.000000 2.531250 -38.272680 12.740096 -24.816638 -55.869249 6.647429 13.987089 -9.944094 -0.824463 0.000000 0.000000 0.000000 7.672192 21.176974 8.642566 54.850432 65.470946 26.938960 -15.533679 22.000254 -1.756611 0.000000 0.000000 0.000000 
-0.004136 0.960829 0.002344 -2.724183 -12.805826 9.318007 9.848201 0.154311 -14.783530 -2.293231 0.306355 3.787444 6.133242 13.364426 19.277710 0.000000 0.000000 0.000000 -7.511524 1.023972 -11.365101 5.660145 -0.387027 5.991935 -9.294847 -23.049772 18.049164 0.000000 0.000000 0.000000 0.707307 -0.475292 24.982635 -7.872157 2.425615 -18.508500 -7.896774 6.900760 24.518261 13.534120 -5.218006 -29.750504 0.000000 0.000000 0.000000 3.067984 -35.275873 11.412254 -31.562326 -55.719533 9.429649 16.381863 -14.903224 -1.520866 0.000000 0.000000 0.000000 7.135637 19.363248 7.878545 59.098586 63.687688 28.693747 -14.261817 25.889111 -1.828841 0.000000 0.000000 0.000000 
-0.005262 0.961194 0.003117 -2.177837 -10.896987 8.135270 8.974333 -0.045674 -13.884379 -1.735793 0.196903 3.705723 5.516975 12.740700 18.675611 0.000000 0.000000 0.000000 -7.472065 0.852314 -9.069748 5.269118 -0.387548 4.830193 -10.034061 -23.888074 19.107879 0.000000 0.000000 0.000000 0.896372 -0.638249 24.096298 -8.201890 2.570163 -18.358988 -7.181824 8.534269 25.054689 14.269881 -5.480461 -28.925786 0.000000 0.000000 0.000000 0.761051 -32.889024 11.065742 -33.621657 -51.082630 8.248295 15.623633 -26.375781 -2.577904 0.000000 0.000000 0.000000 9.194950 17.839956 7.865294 58.143342 58.609785 24.922055 -12.663848 32.509375 -1.778296 0.000000 0.000000 0.000000 
-0.006277 0.961691 0.003722 -1.548805 -9.530413 7.861083 7.832888 -0.239807 -14.002730 -1.141673 0.088583 3.879708 5.042830 12.215276 18.084603 0.000000 0.000000 0.000000 -8.083228 0.753954 -7.334909 6.027808 -0.494278 3.329234 -11.372802 -25.605593 18.764013 0.000000 0.000000 0.000000 0.188316 -0.531258 23.058084 -8.079242 2.549131 -18.724909 -5.993482 9.762257 26.063797 13.872618 -4.979186 -29.177010 0.000000 0.000000 0.000000 -1.364869 -29.477622 10.250018 -35.431301 -45.660076 6.797712 12.556264 -39.893904 -2.931707 0.000000 0.000000 0.000000 9.589223 16.709778 7.694584 56.677287 53.313127 20.789750 -6.773153 42.040641 0.048131 0.000000 0.000000 0.000000 
-0.006873 0.960605 0.003839 -0.893401 -8.024848 7.136458 7.334156 -0.340226 -13.555230 -0.972005 0.054307 3.699225 3.852155 10.595939 17.113288 0.000000 0.000000 0.000000 -8.231127 0.671270 -6.084990 5.804571 -0.497572 2.920074 -12.158675 -26.613550 18.255211 0.000000 0.000000 0.000000 0.019490 -0.556888 22.417801 -8.517580 2.754280 -17.972863 -5.287621 10.792501 25.415674 13.759523 -4.790687 -28.329499 0.000000 0.000000 0.000000 -2.385562 -26.150358 9.086263 -37.237575 -39.797002 5.309896 5.619129 -54.026751 -0.864253 0.000000 0.000000 0.000000 11.508801 15.190824 7.619695 54.923128 47.651840 16.620873 1.168874 50.441047 4.133488 0.000000 0.000000 0.000000 
-0.007217 0.960209 0.003671 -0.455715 -7.537817 7.051252 6.657217 -0.430074 -13.292422 -0.753264 0.024552 3.288906 3.706220 10.428287 16.931722 0.000000 0.000000 0.000000 -8.121588 0.640070 -5.495361 5.326849 -0.454491 2.335101 -12.930720 -27.680890 18.018366 0.000000 0.000000 0.000000 -0.491852 -0.447832 21.049284 -8.603207 2.814817 -17.570141 -4.068720 12.327282 25.718193 13.108071 -4.185240 -28.172197 0.000000 0.000000 0.000000 -2.746466 -22.809596 7.791276 -38.019648 -33.950191 3.526086 -9.919800 -66.610634 8.515112 0.000000 0.000000 0.000000 12.124471 13.946037 7.432546 52.781113 43.150754 13.241211 10.270044 57.833081 10.427566 0.000000 0.000000 0.000000 
-0.007012 0.959641 0.003339 -0.210051 -7.431308 6.940000 6.513512 -0.444255 -12.966602 -0.912348 0.054555 2.906113 3.366488 9.883830 16.526704 0.000000 0.000000 0.000000 -7.885811 0.619402 -5.113127 4.867588 -0.410446 1.852449 -13.261433 -28.136401 17.967356 0.000000 0.000000 0.000000 -0.506119 -0.440729 20.081675 -9.108623 2.971215 -17.494740 -3.122054 13.507476 25.690091 12.935822 -4.060378 -27.332162 0.000000 0.000000 0.000000 -3.164109 -19.685436 6.595851 -38.231819 -28.752551 1.971134 -41.054564 -73.637007 32.960230 0.000000 0.000000 0.000000 12.086470 12.551948 6.941706 50.327188 39.810937 10.685145 23.132436 62.305993 19.775558 0.000000 0.000000 0.000000 
-0.006859 0.959621 0.003072 -0.358982 -7.623613 6.842755 6.414524 -0.439355 -12.514176 -0.399382 -0.008503 2.362917 3.413874 10.003507 17.085076 0.000000 0.000000 0.000000 -7.483772 0.597056 -4.697722 4.524322 -0.375957 1.556516 -13.595752 -28.595056 18.015612 0.000000 0.000000 0.000000 -0.487524 -0.426175 18.610552 -8.946382 2.962362 -16.815319 -2.459942 15.076285 25.847886 12.807966 -3.723626 -27.509462 0.000000 0.000000 0.000000 -2.213983 -17.171804 5.573125 -39.523119 -25.565897 1.051324 -74.580770 -75.558008 62.126482 0.000000 0.000000 0.000000 11.654510 11.443444 6.543937 47.869772 38.504063 9.339502 33.922131 65.983890 29.147008 0.000000 0.000000 0.000000 
-0.006875 0.959520 0.002780 -0.378227 -8.081869 6.962349 6.260374 -0.440494 -12.178812 -0.225099 -0.015142 1.661268 3.530962 10.039777 16.552922 0.000000 0.000000 0.000000 -7.608481 0.612167 -4.750225 4.382118 -0.359795 0.990769 -13.736988 -28.829274 17.801504 0.000000 0.000000 0.000000 -0.279590 -0.430911 16.705786 -9.265422 3.060918 -16.660875 -2.128254 16.280271 26.068928 13.173029 -3.926871 -26.870966 0.000000 0.000000 0.000000 -1.136290 -15.376390 4.917292 -41.466013 -23.930088 0.555856 -96.311771 -75.290092 82.130898 0.000000 0.000000 0.000000 10.529780 10.895357 6.170909 46.125078 39.677728 9.506753 42.852034 70.300881 38.727631 0.000000 0.000000 0.000000 
-0.007224 0.959244 0.002569 -0.578758 -8.079249 6.625402 6.543178 -0.390771 -11.417893 -0.336622 0.025956 0.625509 3.021333 9.383036 17.293659 0.000000 0.000000 0.000000 -7.239828 0.577257 -4.250842 3.790334 -0.312026 0.521500 -14.289489 -29.506898 18.434295 0.000000 0.000000 0.000000 0.288575 -0.510945 15.401690 -9.849738 3.240251 -16.838401 -1.652697 16.257275 26.576733 13.321264 -4.155056 -26.401197 0.000000 0.000000 0.000000 -0.471576 -14.305235 4.587856 -43.018097 -24.898055 0.848678 -112.720440 -75.886093 100.065017 0.000000 0.000000 0.000000 8.865405 11.020406 5.844809 45.657942 41.848394 10.533602 49.477366 76.062332 48.471998 0.000000 0.000000 0.000000 
-0.008131 0.959546 0.002346 -0.749962 -8.505981 6.046671 6.824572 -0.325390 -10.415137 -0.255307 0.026271 0.240148 2.818007 9.041429 17.420457 0.000000 0.000000 0.000000 -7.230884 0.554732 -3.756521 3.947792 -0.323459 0.390343 -13.690804 -28.742952 17.896621 0.000000 0.000000 0.000000 0.565825 -0.520802 14.168322 -9.619090 3.167183 -16.931235 -1.717760 16.488349 26.645732 13.331843 -4.283958 -25.899960 0.000000 0.000000 0.000000 -0.309523 -14.363508 4.614527 -44.646474 -27.153105 1.701502 -124.251987 -78.518424 115.634887 0.000000 0.000000 0.000000 7.231367 11.674962 5.775075 46.602985 46.086941 13.157550 45.122352 82.681509 49.905644 0.000000 0.000000 0.000000 
